<svg width="82" height="76" viewBox="0 0 82 76" fill="none" xmlns="http://www.w3.org/2000/svg">
<g clip-path="url(#clip0_7139_71898)">
<path d="M58.05 8H23.95C22.873 8 22 8.87304 22 9.95V14.05C22 15.127 22.873 16 23.95 16H58.05C59.127 16 60 15.127 60 14.05V9.95C60 8.87304 59.127 8 58.05 8Z" stroke="#7D8DA7" stroke-width="1.5" stroke-linecap="round" stroke-linejoin="round"/>
<path d="M44 25L38 31" stroke="#7D8DA7" stroke-width="1.5" stroke-linecap="round" stroke-linejoin="round"/>
<path d="M38 25L44 31" stroke="#7D8DA7" stroke-width="1.5" stroke-linecap="round" stroke-linejoin="round"/>
<path d="M51.32 40H30.68C29.6766 40 28.7099 39.6228 27.9716 38.9434C27.2333 38.264 26.7773 37.3319 26.694 36.332L25 16H57L55.306 36.332C55.2227 37.3319 54.7667 38.264 54.0284 38.9434C53.2901 39.6228 52.3234 40 51.32 40V40Z" stroke="#7D8DA7" stroke-width="1.5" stroke-linecap="round" stroke-linejoin="round"/>
</g>
<path d="M2.352 69V60.768L12.754 69H14.224V59.452H12.964V67.642L2.548 59.452H1.092V69H2.352ZM16.1108 65.514C16.1108 68.034 17.9588 69.154 21.9768 69.154C26.0088 69.154 27.8568 68.034 27.8568 65.514C27.8568 62.98 26.0088 61.874 21.9768 61.874C17.9588 61.874 16.1108 62.98 16.1108 65.514ZM17.3008 65.514C17.3008 63.666 18.5608 62.896 21.9768 62.896C25.4068 62.896 26.6668 63.666 26.6668 65.514C26.6668 67.376 25.4068 68.118 21.9768 68.118C18.5608 68.118 17.3008 67.376 17.3008 65.514ZM44.5787 58.5V62.294C43.3467 62.084 41.8347 61.888 40.2667 61.888C37.2007 61.888 35.1147 62.84 35.1147 65.612C35.1147 68.048 36.5427 69.14 39.3147 69.14C41.2327 69.14 43.1087 68.454 44.6067 67.754L44.7327 69H45.7687V58.5H44.5787ZM36.3047 65.57C36.3047 63.596 37.7747 62.882 40.1687 62.882C41.6527 62.882 43.3327 63.064 44.5787 63.26V66.956C42.9827 67.586 41.2467 68.132 39.4827 68.132C37.2847 68.132 36.3047 67.362 36.3047 65.57ZM58.3195 62.392C56.8915 62.14 54.9315 61.888 52.8875 61.888C49.7795 61.888 47.6655 62.798 47.6655 65.542C47.6655 68.034 49.1075 69.14 51.7955 69.14C53.7415 69.14 55.6315 68.454 57.1575 67.712L57.2835 69H58.3195V62.392ZM48.8555 65.514C48.8555 63.582 50.3395 62.882 52.7475 62.882C54.2175 62.882 55.8835 63.036 57.1295 63.218V66.886C55.5055 67.558 53.7975 68.132 52.0055 68.132C49.8355 68.132 48.8555 67.376 48.8555 65.514ZM61.4203 65.486C61.4203 68.16 62.5543 69.154 65.4943 69.154C66.8243 69.154 68.0983 68.93 69.0503 68.692L68.8123 67.712C67.8883 67.922 66.8103 68.132 65.5783 68.132C63.2683 68.132 62.6243 67.418 62.6243 65.416V63.022H68.6583V62.028H62.6243V60.264H61.6583L61.4483 62.028H59.6283V63.022H61.4203V65.486ZM80.9328 62.392C79.5048 62.14 77.5448 61.888 75.5008 61.888C72.3928 61.888 70.2788 62.798 70.2788 65.542C70.2788 68.034 71.7208 69.14 74.4088 69.14C76.3548 69.14 78.2448 68.454 79.7708 67.712L79.8968 69H80.9328V62.392ZM71.4688 65.514C71.4688 63.582 72.9528 62.882 75.3608 62.882C76.8308 62.882 78.4968 63.036 79.7428 63.218V66.886C78.1188 67.558 76.4108 68.132 74.6188 68.132C72.4488 68.132 71.4688 67.376 71.4688 65.514Z" fill="#7D8DA7"/>
<defs>
<clipPath id="clip0_7139_71898">
<rect width="48" height="48" fill="white" transform="translate(17)"/>
</clipPath>
</defs>
</svg>
