<svg width="20" height="20" viewBox="0 0 20 20" fill="none" xmlns="http://www.w3.org/2000/svg">
<g clip-path="url(#clip0_7558_125872)">
<path d="M10 17.5C8.01088 17.5 6.10322 16.7098 4.6967 15.3033C3.29018 13.8968 2.5 11.9891 2.5 10C2.5 8.01088 3.29018 6.10322 4.6967 4.6967C6.10322 3.29018 8.01088 2.5 10 2.5C11.9891 2.5 13.8968 3.29018 15.3033 4.6967C16.7098 6.10322 17.5 8.01088 17.5 10C17.5 11.9891 16.7098 13.8968 15.3033 15.3033C13.8968 16.7098 11.9891 17.5 10 17.5V17.5Z" stroke="#7D8DA7" stroke-width="1.5" stroke-linecap="round" stroke-linejoin="round"/>
<path d="M10 11.0416V10.8333C10 10.1525 10.4209 9.7833 10.8425 9.49997C11.2542 9.22247 11.6667 8.8608 11.6667 8.19413C11.6667 7.75211 11.4911 7.32818 11.1786 7.01562C10.866 6.70306 10.4421 6.52747 10 6.52747C9.55801 6.52747 9.13409 6.70306 8.82153 7.01562C8.50897 7.32818 8.33337 7.75211 8.33337 8.19413" stroke="#7D8DA7" stroke-width="1.5" stroke-linecap="round" stroke-linejoin="round"/>
<path d="M9.99921 13.3333C9.88421 13.3333 9.79088 13.4267 9.79171 13.5417C9.79171 13.6567 9.88504 13.75 10 13.75C10.115 13.75 10.2084 13.6567 10.2084 13.5417C10.2084 13.4267 10.115 13.3333 9.99921 13.3333" stroke="#7D8DA7" stroke-width="1.5" stroke-linecap="round" stroke-linejoin="round"/>
</g>
<defs>
<clipPath id="clip0_7558_125872">
<rect width="20" height="20" fill="white"/>
</clipPath>
</defs>
</svg>
